HIERARCHY
ROOT Hips
{
	OFFSET 0.000000 83.214638 0.000000
	CHANNELS 6 Xposition Yposition Zposition Xrotation Yrotation Zrotation
	JOINT Pelvis
	{
		OFFSET 0.000000 0.000000 0.000000
		CHANNELS 3 Xrotation Yrotation Zrotation
		JOINT LeftUpLeg
		{
			OFFSET 8.479700 -4.795502 -0.379100
			CHANNELS 3 Xrotation Yrotation Zrotation
			JOINT LeftLeg
			{
				OFFSET 0.024144 -32.555107 0.112900
				CHANNELS 3 Xrotation Yrotation Zrotation
				JOINT LeftFoot
				{
					OFFSET -0.024144 -32.638630 -3.012600
					CHANNELS 3 Xrotation Yrotation Zrotation
					JOINT LeftToeBase
					{
						OFFSET 0.970200 -13.225400 11.864200
						CHANNELS 3 Xrotation Yrotation Zrotation
						End Site
						{
							OFFSET 0.000000 12.319262 0.000000
						}
					}
					JOINT LFootTongue
					{
						OFFSET 1.142400 -1.059800 6.665200
						CHANNELS 3 Xrotation Yrotation Zrotation
						End Site
						{
							OFFSET 0.000000 12.319262 0.000000
						}
					}
				}
				JOINT LeftPantLeg
				{
					OFFSET 0.918482 -16.533964 -2.284700
					CHANNELS 3 Xrotation Yrotation Zrotation
					End Site
					{
						OFFSET 0.350399 24.744368 0.000000
					}
				}
			}
		}
		JOINT RightUpLeg
		{
			OFFSET -8.479700 -4.795502 -0.379100
			CHANNELS 3 Xrotation Yrotation Zrotation
			JOINT RightLeg
			{
				OFFSET -0.023144 -32.555092 0.112900
				CHANNELS 3 Xrotation Yrotation Zrotation
				JOINT RightFoot
				{
					OFFSET 0.023144 -32.638641 -3.012700
					CHANNELS 3 Xrotation Yrotation Zrotation
					JOINT RightToeBase
					{
						OFFSET -0.970200 -13.225400 11.864200
						CHANNELS 3 Xrotation Yrotation Zrotation
						End Site
						{
							OFFSET 0.000000 12.319244 0.000000
						}
					}
					JOINT RFootTongue
					{
						OFFSET -1.142200 -1.059800 6.665200
						CHANNELS 3 Xrotation Yrotation Zrotation
						End Site
						{
							OFFSET 0.000000 12.319243 0.000000
						}
					}
				}
				JOINT RightPantLeg
				{
					OFFSET -0.919482 -16.533978 -2.284800
					CHANNELS 3 Xrotation Yrotation Zrotation
					End Site
					{
						OFFSET -0.350400 24.744419 0.000000
					}
				}
			}
		}
	}
	JOINT Spine
	{
		OFFSET 0.000000 7.722000 1.166200
		CHANNELS 3 Xrotation Yrotation Zrotation
		JOINT Spine1
		{
			OFFSET 0.000000 12.024101 0.248800
			CHANNELS 3 Xrotation Yrotation Zrotation
			JOINT Spine2
			{
				OFFSET 0.000000 11.502998 -0.491200
				CHANNELS 3 Xrotation Yrotation Zrotation
				JOINT Neck
				{
					OFFSET 0.000000 18.430702 -3.123100
					CHANNELS 3 Xrotation Yrotation Zrotation
					JOINT Head
					{
						OFFSET 0.000000 9.051102 1.034000
						CHANNELS 3 Xrotation Yrotation Zrotation
						JOINT HairB
						{
							OFFSET 0.208400 24.786102 24.822300
							CHANNELS 3 Xrotation Yrotation Zrotation
							End Site
							{
								OFFSET 0.000000 32.263779 0.000000
							}
						}
						JOINT HairA
						{
							OFFSET -7.081100 24.428299 23.196600
							CHANNELS 3 Xrotation Yrotation Zrotation
							End Site
							{
								OFFSET 0.000000 32.263779 0.000000
							}
						}
						JOINT Hat
						{
							OFFSET 16.728800 15.048294 -15.439601
							CHANNELS 3 Xrotation Yrotation Zrotation
							End Site
							{
								OFFSET 0.000000 32.263779 0.000000
							}
						}
					}
				}
				JOINT LeftShoulder
				{
					OFFSET 6.197800 13.665199 -4.064700
					CHANNELS 3 Xrotation Yrotation Zrotation
					JOINT LeftArm
					{
						OFFSET 7.778100 -0.187103 -1.709300
						CHANNELS 3 Xrotation Yrotation Zrotation
						JOINT LeftForeArm
						{
							OFFSET 22.049376 0.000000 0.000000
							CHANNELS 3 Xrotation Yrotation Zrotation
							JOINT LeftHand
							{
								OFFSET 23.009392 0.000000 0.000000
								CHANNELS 3 Xrotation Yrotation Zrotation
								JOINT LeftHandThumb1
								{
									OFFSET 3.507191 -2.063065 3.133727
									CHANNELS 3 Xrotation Yrotation Zrotation
									JOINT LeftHandThumb2
									{
										OFFSET 3.101337 -1.790558 1.790558
										CHANNELS 3 Xrotation Yrotation Zrotation
										JOINT LeftHandThumb3
										{
											OFFSET 3.058640 -1.765907 1.765906
											CHANNELS 3 Xrotation Yrotation Zrotation
											End Site
											{
												OFFSET -0.415260 3.926476 -0.049563
											}
										}
									}
								}
								JOINT LeftHandIndex1
								{
									OFFSET 11.334419 -0.901459 3.706815
									CHANNELS 3 Xrotation Yrotation Zrotation
									JOINT LeftHandIndex2
									{
										OFFSET 3.283112 0.000000 0.000000
										CHANNELS 3 Xrotation Yrotation Zrotation
										JOINT LeftHandIndex3
										{
											OFFSET 3.323853 0.000000 0.000000
											CHANNELS 3 Xrotation Yrotation Zrotation
											End Site
											{
												OFFSET -1.135597 3.097809 0.402452
											}
										}
									}
								}
								JOINT LeftHandMiddle1
								{
									OFFSET 11.335861 0.000000 0.000000
									CHANNELS 3 Xrotation Yrotation Zrotation
									JOINT LeftHandMiddle2
									{
										OFFSET 3.410492 0.000000 0.000000
										CHANNELS 3 Xrotation Yrotation Zrotation
										JOINT LeftHandMiddle3
										{
											OFFSET 3.312172 0.000000 0.000000
											CHANNELS 3 Xrotation Yrotation Zrotation
											End Site
											{
												OFFSET -1.150200 3.080154 0.400270
											}
										}
									}
								}
								JOINT LeftHandRing1
								{
									OFFSET 11.514786 -0.013176 -3.003090
									CHANNELS 3 Xrotation Yrotation Zrotation
									JOINT LeftHandRing2
									{
										OFFSET 3.053307 0.000000 0.000000
										CHANNELS 3 Xrotation Yrotation Zrotation
										JOINT LeftHandRing3
										{
											OFFSET 3.295807 0.000000 0.000000
											CHANNELS 3 Xrotation Yrotation Zrotation
											End Site
											{
												OFFSET -1.281006 3.013344 0.375733
											}
										}
									}
								}
								JOINT LeftHandPinky1
								{
									OFFSET 10.518692 -0.960396 -5.730441
									CHANNELS 3 Xrotation Yrotation Zrotation
									JOINT LeftHandPinky2
									{
										OFFSET 2.861649 0.000000 0.000000
										CHANNELS 3 Xrotation Yrotation Zrotation
										JOINT LeftHandPinky3
										{
											OFFSET 2.863380 0.000000 0.000000
											CHANNELS 3 Xrotation Yrotation Zrotation
											End Site
											{
												OFFSET -0.843597 2.711159 0.369971
											}
										}
									}
								}
							}
							JOINT LSleeve
							{
								OFFSET 6.676277 -0.344902 -1.011730
								CHANNELS 3 Xrotation Yrotation Zrotation
								End Site
								{
									OFFSET 0.000000 14.885353 0.000000
								}
							}
						}
					}
				}
				JOINT RightShoulder
				{
					OFFSET -6.197800 13.665199 -4.064700
					CHANNELS 3 Xrotation Yrotation Zrotation
					JOINT RightArm
					{
						OFFSET -7.778100 -0.187103 -1.709300
						CHANNELS 3 Xrotation Yrotation Zrotation
						JOINT RightForeArm
						{
							OFFSET -22.049376 0.000000 0.000000
							CHANNELS 3 Xrotation Yrotation Zrotation
							JOINT RightHand
							{
								OFFSET -23.009392 0.000000 0.000000
								CHANNELS 3 Xrotation Yrotation Zrotation
								JOINT RightHandThumb1
								{
									OFFSET -3.507191 -2.063065 3.133727
									CHANNELS 3 Xrotation Yrotation Zrotation
									JOINT RightHandThumb2
									{
										OFFSET -3.101337 -1.790558 1.790558
										CHANNELS 3 Xrotation Yrotation Zrotation
										JOINT RightHandThumb3
										{
											OFFSET -3.058640 -1.765907 1.765906
											CHANNELS 3 Xrotation Yrotation Zrotation
											End Site
											{
												OFFSET 0.415260 3.926476 -0.049563
											}
										}
									}
								}
								JOINT RightHandIndex1
								{
									OFFSET -11.334419 -0.901459 3.706815
									CHANNELS 3 Xrotation Yrotation Zrotation
									JOINT RightHandIndex2
									{
										OFFSET -3.283112 0.000000 0.000000
										CHANNELS 3 Xrotation Yrotation Zrotation
										JOINT RightHandIndex3
										{
											OFFSET -3.323853 0.000000 0.000000
											CHANNELS 3 Xrotation Yrotation Zrotation
											End Site
											{
												OFFSET 1.135597 3.097809 0.402452
											}
										}
									}
								}
								JOINT RightHandMiddle1
								{
									OFFSET -11.335861 0.000000 0.000000
									CHANNELS 3 Xrotation Yrotation Zrotation
									JOINT RightHandMiddle2
									{
										OFFSET -3.410492 0.000000 0.000000
										CHANNELS 3 Xrotation Yrotation Zrotation
										JOINT RightHandMiddle3
										{
											OFFSET -3.312172 0.000000 0.000000
											CHANNELS 3 Xrotation Yrotation Zrotation
											End Site
											{
												OFFSET 1.150200 3.080154 0.400270
											}
										}
									}
								}
								JOINT RightHandRing1
								{
									OFFSET -11.514786 -0.013176 -3.003090
									CHANNELS 3 Xrotation Yrotation Zrotation
									JOINT RightHandRing2
									{
										OFFSET -3.053307 0.000000 0.000000
										CHANNELS 3 Xrotation Yrotation Zrotation
										JOINT RightHandRing3
										{
											OFFSET -3.295807 0.000000 0.000000
											CHANNELS 3 Xrotation Yrotation Zrotation
											End Site
											{
												OFFSET 1.281006 3.013344 0.375733
											}
										}
									}
								}
								JOINT RightHandPinky1
								{
									OFFSET -10.518692 -0.960396 -5.730441
									CHANNELS 3 Xrotation Yrotation Zrotation
									JOINT RightHandPinky2
									{
										OFFSET -2.861649 0.000000 0.000000
										CHANNELS 3 Xrotation Yrotation Zrotation
										JOINT RightHandPinky3
										{
											OFFSET -2.863380 0.000000 0.000000
											CHANNELS 3 Xrotation Yrotation Zrotation
											End Site
											{
												OFFSET 0.843597 2.711159 0.369971
											}
										}
									}
								}
							}
							JOINT RSleeve
							{
								OFFSET -6.676277 -0.344902 -1.011730
								CHANNELS 3 Xrotation Yrotation Zrotation
								End Site
								{
									OFFSET 0.000000 14.885353 0.000000
								}
							}
						}
					}
				}
				JOINT Backpack
				{
					OFFSET 0.000000 -2.471497 36.677502
					CHANNELS 3 Xrotation Yrotation Zrotation
					End Site
					{
						OFFSET 0.000000 20.427315 0.000000
					}
				}
				JOINT Hood
				{
					OFFSET 0.000000 18.754097 -10.431000
					CHANNELS 3 Xrotation Yrotation Zrotation
					JOINT Hood1
					{
						OFFSET 0.000000 -5.011002 -7.685901
						CHANNELS 3 Xrotation Yrotation Zrotation
						End Site
						{
							OFFSET 0.000000 9.175140 0.000000
						}
					}
				}
				JOINT LHoodieString
				{
					OFFSET 5.250500 16.397697 3.089900
					CHANNELS 3 Xrotation Yrotation Zrotation
					JOINT LHoodieString1
					{
						OFFSET 0.257700 -6.364304 3.694600
						CHANNELS 3 Xrotation Yrotation Zrotation
						JOINT LHoodieString2
						{
							OFFSET 0.000000 -9.643799 2.679100
							CHANNELS 3 Xrotation Yrotation Zrotation
							End Site
							{
								OFFSET 0.000000 10.009018 0.000000
							}
						}
					}
				}
				JOINT RHoodieString
				{
					OFFSET -5.250500 16.397697 3.089900
					CHANNELS 3 Xrotation Yrotation Zrotation
					JOINT RHoodieString1
					{
						OFFSET -0.257700 -6.364304 3.694600
						CHANNELS 3 Xrotation Yrotation Zrotation
						JOINT RHoodieString2
						{
							OFFSET 0.000000 -9.643799 2.679100
							CHANNELS 3 Xrotation Yrotation Zrotation
							End Site
							{
								OFFSET 0.000000 10.009018 0.000000
							}
						}
					}
				}
			}
			JOINT LBackpack_Strap
			{
				OFFSET 15.223200 -7.719803 -6.610900
				CHANNELS 3 Xrotation Yrotation Zrotation
				End Site
				{
					OFFSET 0.000000 16.040596 0.000000
				}
			}
			JOINT RBackpack_Strap
			{
				OFFSET -15.223000 -7.719803 -6.610900
				CHANNELS 3 Xrotation Yrotation Zrotation
				End Site
				{
					OFFSET 0.000000 16.040596 0.000000
				}
			}
		}
	}
	JOINT BoyFacialAnim_Joint
	{
		OFFSET 1.000000 -82.208099 -1.550900
		CHANNELS 3 Xrotation Yrotation Zrotation
		End Site
		{
			OFFSET 0.000000 30.012791 0.000000
		}
	}
}
MOTION
Frames: 4
Frame Time: 0.033333
30.114670 12.827766 303.601013 262.327840 15.318239 -110.896440 0.000001 0.000000 -0.000001 -11.876487 19.097856 -0.079041 2.077875 7.222088 0.421540 7.417963 8.554346 -6.768834 0.000001 0.000000 0.000004 0.000001 0.000000 0.000005 -0.000003 -0.000000 -0.000000 -26.796760 -17.237570 -37.237488 2.763635 -9.513881 -0.479891 11.033120 -4.341142 20.218550 -0.000000 -0.000003 -0.000003 -0.000000 -0.000003 -0.000003 -0.000000 -0.000001 -0.000000 13.321416 -4.833580 2.129359 9.197134 -1.958434 -0.313484 9.086378 -2.253784 -0.599240 -5.201825 2.138934 5.815505 -1.829428 18.990518 3.605730 0.000001 -0.000000 0.000000 0.000001 -0.000000 0.000000 0.000001 -0.000000 0.000000 0.379824 -7.975624 6.484369 -49.833535 -7.151398 -71.338628 0.000014 -26.687631 -0.000002 -88.089394 5.434706 -26.233630 1.567993 0.456384 2.719342 19.473182 -1.474918 7.636927 0.000001 -0.000002 0.000000 -1.882812 2.129431 -39.817018 2.947089 5.081740 -60.200509 -0.000001 -0.000000 -0.000004 0.405921 5.507062 -52.453162 3.387154 5.308617 -65.057470 -0.000000 -0.000000 0.000002 -0.074372 5.736786 -61.061420 4.422082 5.674479 -75.840406 -0.000000 -0.000002 0.000005 2.216824 7.072465 -64.435445 4.422615 5.674629 -75.845754 -0.000002 0.000002 0.000000 0.000000 0.000001 0.000003 0.234172 5.590276 27.406554 23.994907 52.880588 4.580490 -0.000009 69.221918 0.000002 -69.794725 14.483609 18.612756 8.377144 -4.904124 11.021997 21.620202 -18.183903 -18.379214 -0.000001 0.000002 0.000003 -1.101391 1.407145 15.159492 1.422348 -3.352198 45.974113 -0.000000 0.000000 0.000002 3.413071 -7.186269 51.650235 6.296827 -4.359601 110.634680 0.000001 0.000004 0.000000 -3.349025 -2.600411 57.010551 5.440846 -4.590900 99.698147 0.000000 -0.000000 -0.000001 -3.996441 -3.303926 64.593843 4.058862 -4.618685 82.610503 -0.000000 -0.000001 0.000004 -0.000001 0.000000 -0.000004 0.000001 -0.000001 -0.000001 0.000001 -0.000001 -0.000001 0.000001 -0.000001 -0.000001 0.000001 -0.000001 -0.000001 0.000001 -0.000001 -0.000000 -0.000000 -0.000001 0.000002 0.000001 -0.000001 -0.000001 0.000001 -0.000001 -0.000000 -0.000000 -0.000001 0.000002 -0.000000 0.000001 0.000000 -0.000000 0.000001 0.000000 0.000001 0.000000 -0.000001 
31.676548 12.737541 305.410767 266.388634 13.832712 -112.143223 -0.000001 -0.000000 0.000001 -14.015745 20.463006 6.127910 2.794809 9.570540 1.359461 8.007685 20.454272 2.453496 0.000000 0.000001 -0.000002 0.000000 0.000001 -0.000002 -0.000000 0.000000 0.000000 -24.978868 -19.307155 -38.014541 5.114489 -9.336013 -0.573890 16.267748 -6.463661 16.003369 -0.000005 -0.000001 -0.000002 -0.000005 -0.000001 -0.000002 -0.000000 -0.000001 -0.000001 12.470518 -4.202982 1.144573 8.795839 -1.675769 -0.817132 8.702884 -1.890847 -1.051039 -7.656250 1.785082 9.391348 -10.455505 22.754546 5.105069 0.000000 -0.000000 0.000000 0.000000 -0.000000 0.000000 0.000000 -0.000000 0.000000 -0.384278 -6.292507 10.768559 -38.602108 -9.814750 -71.196034 0.000007 -30.311362 0.000014 -90.772941 8.550752 -27.770216 1.567992 0.456384 2.719342 19.473184 -1.474932 7.636915 -0.000002 -0.000002 0.000001 -1.882823 2.129433 -39.817021 2.947103 5.081745 -60.200516 0.000003 0.000000 -0.000002 0.405917 5.507048 -52.453148 3.387145 5.308614 -65.057449 -0.000001 0.000001 -0.000001 -0.074381 5.736787 -61.061406 4.422085 5.674476 -75.840378 -0.000000 0.000002 -0.000000 2.216811 7.072479 -64.435417 4.422646 5.674618 -75.845788 -0.000001 0.000000 -0.000000 -0.000000 -0.000001 0.000001 0.461053 4.176186 28.533016 32.204065 53.793661 -2.998901 0.000006 70.784829 0.000010 -70.508138 9.564829 17.032453 8.377140 -4.904127 11.021992 21.620199 -18.183903 -18.379211 -0.000000 0.000001 0.000001 -1.101391 1.407142 15.159494 1.422350 -3.352197 45.974116 -0.000002 0.000000 0.000002 3.413072 -7.186271 51.650235 6.296827 -4.359603 110.634680 0.000000 -0.000003 0.000001 -3.349026 -2.600412 57.010551 5.440847 -4.590898 99.698147 -0.000000 -0.000004 -0.000000 -3.996442 -3.303928 64.593837 4.058863 -4.618682 82.610503 0.000001 -0.000001 0.000000 0.000002 0.000000 -0.000002 0.000001 -0.000000 -0.000000 0.000001 -0.000000 -0.000000 0.000001 -0.000000 -0.000000 0.000001 -0.000000 -0.000000 0.000001 -0.000000 0.000000 0.000001 -0.000002 0.000000 0.000001 -0.000000 -0.000000 0.000001 -0.000000 0.000000 0.000001 -0.000002 0.000000 -0.000000 0.000000 -0.000002 -0.000000 0.000000 -0.000002 -0.000001 -0.000000 0.000001 
32.936844 13.067749 306.248230 269.411238 11.978434 -112.172402 0.000001 -0.000000 0.000000 -18.933295 21.139599 14.270210 3.518305 10.100757 2.361129 11.233246 29.060040 2.704235 -0.000000 0.000000 -0.000000 -0.000000 0.000000 -0.000001 -0.000001 -0.000001 -0.000000 -24.864226 -17.135626 -39.090583 11.019489 -8.788292 -0.794865 25.009363 -4.422267 8.970221 0.000001 0.000001 0.000001 0.000001 0.000001 0.000001 -0.000001 -0.000000 0.000002 12.122534 -3.833903 0.021987 8.758975 -1.523727 -1.251656 8.684708 -1.672398 -1.455101 -8.843938 2.062481 11.173084 -14.215273 26.705806 5.594031 -0.000000 -0.000002 0.000001 -0.000000 -0.000002 0.000001 -0.000000 -0.000002 0.000001 -1.188291 -6.199717 9.598946 -21.466936 -12.775703 -66.887476 -0.000018 -39.256519 -0.000007 -92.026513 8.562049 -31.499624 1.567992 0.456378 2.719342 19.473190 -1.474909 7.636916 -0.000000 0.000001 0.000000 -1.882812 2.129430 -39.817018 2.947090 5.081737 -60.200509 -0.000003 -0.000000 -0.000002 0.405921 5.507061 -52.453158 3.387143 5.308614 -65.057470 0.000003 0.000001 0.000002 -0.074381 5.736783 -61.061399 4.422080 5.674480 -75.840399 -0.000001 0.000001 0.000001 2.216811 7.072461 -64.435417 4.422632 5.674630 -75.845774 -0.000000 0.000001 -0.000004 0.000001 -0.000002 0.000001 0.677081 2.936365 28.034418 32.305019 53.343183 -2.894876 -0.000054 74.391839 0.000051 -67.309014 3.157231 15.465662 8.377142 -4.904121 11.021997 21.620201 -18.183902 -18.379214 0.000001 0.000004 -0.000000 -1.101392 1.407144 15.159494 1.422349 -3.352196 45.974109 0.000001 0.000001 0.000002 3.413073 -7.186264 51.650235 6.296824 -4.359601 110.634680 0.000003 0.000004 0.000000 -3.349026 -2.600410 57.010561 5.440849 -4.590899 99.698147 0.000002 0.000001 0.000001 -3.996439 -3.303920 64.593843 4.058859 -4.618681 82.610503 0.000000 -0.000003 -0.000002 0.000001 0.000000 0.000000 0.000001 0.000000 -0.000001 0.000001 0.000000 -0.000001 0.000001 0.000000 -0.000001 0.000001 0.000000 -0.000001 0.000001 0.000000 -0.000001 -0.000000 0.000001 0.000001 0.000001 0.000000 -0.000001 0.000001 0.000000 -0.000001 -0.000000 0.000001 0.000001 -0.000000 -0.000000 -0.000001 -0.000000 -0.000000 -0.000001 0.000001 -0.000000 0.000000 
33.690071 13.171127 306.689911 271.863604 10.317872 -111.932034 -0.000000 -0.000000 0.000003 -25.578416 20.937622 23.310695 5.971530 9.780939 1.960620 10.455618 28.041507 0.149265 -0.000000 -0.000001 -0.000001 -0.000000 -0.000001 -0.000000 -0.000002 0.000003 0.000001 -23.167015 -14.318750 -39.715091 14.459466 -3.981982 -0.522949 29.441291 -2.211435 4.943691 -0.000003 0.000002 -0.000003 -0.000003 0.000002 -0.000003 -0.000000 -0.000003 0.000001 11.740235 -3.513147 -0.711812 8.685889 -1.342964 -1.406598 8.620182 -1.459041 -1.625154 -8.422727 2.449272 11.369745 -13.084178 29.139315 6.156046 0.000000 0.000001 -0.000000 0.000000 0.000001 -0.000000 0.000000 0.000001 -0.000000 -2.212672 -7.034796 3.919764 -0.651133 -13.422651 -57.322397 -0.000016 -47.039318 -0.000011 -90.617875 6.501527 -38.190504 1.567993 0.456386 2.719342 23.907878 18.336235 12.311632 -0.000001 0.000003 0.000002 0.075361 -1.613208 -0.037941 0.250025 1.694844 -16.782541 -0.000000 -0.000002 -0.000000 -0.202475 1.790044 -12.506676 0.417822 2.174597 -21.749192 0.000001 -0.000003 -0.000002 -0.536957 1.889682 -21.158548 0.913259 3.142849 -32.398879 0.000003 0.000001 -0.000004 0.172483 3.862656 -24.320103 0.918363 3.150878 -32.491773 -0.000002 0.000001 0.000002 0.000001 0.000002 0.000002 0.857626 1.618053 25.802803 28.807378 50.584395 0.934860 -0.000103 79.492351 0.000112 -62.233535 -2.551480 14.930334 8.377143 -4.904122 11.021994 21.620199 -18.183903 -18.379211 -0.000002 0.000001 -0.000002 -1.101388 1.407144 15.159489 1.422351 -3.352195 45.974109 0.000002 0.000000 0.000002 3.413072 -7.186269 51.650235 6.296825 -4.359606 110.634680 0.000000 -0.000003 0.000001 -3.349025 -2.600411 57.010551 5.440853 -4.590901 99.698147 0.000001 0.000002 0.000001 -3.996441 -3.303929 64.593843 4.058856 -4.618679 82.610503 -0.000000 -0.000004 -0.000002 -0.000000 0.000000 0.000001 -0.000001 -0.000001 -0.000000 -0.000001 -0.000001 -0.000000 -0.000001 -0.000001 -0.000000 -0.000001 -0.000001 -0.000000 -0.000001 -0.000001 -0.000002 -0.000002 0.000000 0.000001 -0.000001 -0.000001 -0.000000 -0.000001 -0.000001 -0.000002 -0.000002 0.000000 0.000001 -0.000000 -0.000001 -0.000003 -0.000000 -0.000001 -0.000003 -0.000000 -0.000000 0.000003 
